<?xml version="1.0" standalone="no"?>
<svg viewBox="0 0 200 200" xmlns="http://www.w3.org/2000/svg">
  <path fill="#8A3FFC" d="M47,-73.2C61.6,-63.7,74.7,-51.9,81.1,-37.2C87.6,-22.6,87.3,-5,83.9,11.4C80.5,27.8,73.9,43,64,56.6C54,70.2,40.8,82.1,25.1,87.8C9.3,93.5,-8.9,93.1,-25.5,87.8C-42.1,82.5,-57,72.4,-67.7,59.2C-78.5,45.9,-85,29.6,-86.9,12.8C-88.8,-3.9,-86,-20.9,-79.6,-37C-73.2,-53,-63.3,-68.1,-49.5,-78C-35.6,-87.9,-17.8,-92.6,-0.8,-91.3C16.2,-90,32.3,-82.8,47,-73.2Z" transform="translate(100 100)" />
</svg>
